HIERARCHY
ROOT Hips
{
	OFFSET 0.000000 0.000000 0.000000
	CHANNELS 6 Xposition Yposition Zposition Zrotation Yrotation Xrotation 
	JOINT LHipJoint
	{
		OFFSET 0.000000 0.000000 0.000000
		CHANNELS 3 Zrotation Yrotation Xrotation
		JOINT LeftUpLeg
		{
			OFFSET 1.363060 -1.794630 0.839290
			CHANNELS 3 Zrotation Yrotation Xrotation
			JOINT LeftLeg
			{
				OFFSET 2.448110 -6.726130 0.000000
				CHANNELS 3 Zrotation Yrotation Xrotation
				JOINT LeftFoot
				{
					OFFSET 2.562200 -7.039590 0.000000
					CHANNELS 3 Zrotation Yrotation Xrotation
					JOINT LeftToeBase
					{
						OFFSET 0.157640 -0.433110 2.322550
						CHANNELS 3 Zrotation Yrotation Xrotation
						End Site
						{
							OFFSET 0.000000 0.000000 0.000000
						}
					}
				}
			}
		}
	}
	JOINT RHipJoint
	{
		OFFSET 0.000000 0.000000 0.000000
		CHANNELS 3 Zrotation Yrotation Xrotation
		JOINT RightUpLeg
		{
			OFFSET -1.305520 -1.794630 0.839290
			CHANNELS 3 Zrotation Yrotation Xrotation
			JOINT RightLeg
			{
				OFFSET -2.542530 -6.985550 0.000000
				CHANNELS 3 Zrotation Yrotation Xrotation
				JOINT RightFoot
				{
					OFFSET -2.568260 -7.056230 0.000000
					CHANNELS 3 Zrotation Yrotation Xrotation
					JOINT RightToeBase
					{
						OFFSET -0.164730 -0.452590 2.363150
						CHANNELS 3 Zrotation Yrotation Xrotation
						End Site
						{
							OFFSET 0.000000 0.000000 0.000000
						}
					}
				}
			}
		}
	}
	JOINT LowerBack
	{
		OFFSET 0.000000 0.000000 0.000000
		CHANNELS 3 Zrotation Yrotation Xrotation
		JOINT Spine
		{
			OFFSET 0.028270 2.035590 -0.193380
			CHANNELS 3 Zrotation Yrotation Xrotation
			JOINT Spine1
			{
				OFFSET 0.056720 2.048850 -0.042750
				CHANNELS 3 Zrotation Yrotation Xrotation
				JOINT Neck
				{
					OFFSET 0.000000 0.000000 0.000000
					CHANNELS 3 Zrotation Yrotation Xrotation
					JOINT Neck1
					{
						OFFSET -0.054170 1.746240 0.172020
						CHANNELS 3 Zrotation Yrotation Xrotation
						JOINT Head
						{
							OFFSET 0.104070 1.761360 -0.123970
							CHANNELS 3 Zrotation Yrotation Xrotation
							End Site
							{
								OFFSET 0.000000 0.000000 0.000000
							}
						}
					}
				}
				JOINT LeftShoulder
				{
					OFFSET 0.000000 0.000000 0.000000
					CHANNELS 3 Zrotation Yrotation Xrotation
					JOINT LeftArm
					{
						OFFSET 3.362410 1.200890 -0.311210
						CHANNELS 3 Zrotation Yrotation Xrotation
						JOINT LeftForeArm
						{
							OFFSET 4.983000 -0.000000 -0.000000
							CHANNELS 3 Zrotation Yrotation Xrotation
							JOINT LeftHand
							{
								OFFSET 3.483560 -0.000000 -0.000000
								CHANNELS 3 Zrotation Yrotation Xrotation
								JOINT LeftFingerBase
								{
									OFFSET 0.000000 0.000000 0.000000
									CHANNELS 3 Zrotation Yrotation Xrotation
									JOINT LeftHandIndex1
									{
										OFFSET 0.715260 -0.000000 -0.000000
										CHANNELS 3 Zrotation Yrotation Xrotation
										End Site
										{
											OFFSET 0.000000 0.000000 0.000000
										}
									}
								}
								JOINT LThumb
								{
									OFFSET 0.000000 0.000000 0.000000
									CHANNELS 3 Zrotation Yrotation Xrotation
									End Site
									{
										OFFSET 0.000000 0.000000 0.000000
									}
								}
							}
						}
					}
				}
				JOINT RightShoulder
				{
					OFFSET 0.000000 0.000000 0.000000
					CHANNELS 3 Zrotation Yrotation Xrotation
					JOINT RightArm
					{
						OFFSET -3.136600 1.374050 -0.404650
						CHANNELS 3 Zrotation Yrotation Xrotation
						JOINT RightForeArm
						{
							OFFSET -5.241900 -0.000000 -0.000000
							CHANNELS 3 Zrotation Yrotation Xrotation
							JOINT RightHand
							{
								OFFSET -3.444170 -0.000000 -0.000000
								CHANNELS 3 Zrotation Yrotation Xrotation
								JOINT RightFingerBase
								{
									OFFSET 0.000000 0.000000 0.000000
									CHANNELS 3 Zrotation Yrotation Xrotation
									JOINT RightHandIndex1
									{
										OFFSET -0.622530 -0.000000 -0.000000
										CHANNELS 3 Zrotation Yrotation Xrotation
										End Site
										{
											OFFSET 0.000000 0.000000 0.000000
										}
									}
								}
								JOINT RThumb
								{
									OFFSET 0.000000 0.000000 0.000000
									CHANNELS 3 Zrotation Yrotation Xrotation
									End Site
									{
										OFFSET 0.000000 0.000000 0.000000
									}
								}
							}
						}
					}
				}
			}
		}
	}
}
MOTION
Frames: 5
Frame Time: 0.008333
9.345002 18.032617 -7.187432 -6.022496 -5.554507 7.082309 9.855228 4.655055 1.033083 -16.586885 -16.592254 -38.697057 3.159198 15.757155 42.086260 -0.784319 6.963860 7.886256 1.318000 -7.271300 -20.521600 -9.531905 -6.694737 1.635939 38.743382 11.266768 -5.072714 -0.088934 -6.651902 25.972109 0.167681 -3.275885 -9.710114 -0.001600 -0.254700 0.699900 5.771024 1.757557 3.210121 1.717998 2.248448 -2.707742 0.753244 1.696929 -4.874676 -12.632112 -1.577068 -6.457044 5.041960 -1.442960 10.777690 6.412500 -1.184300 4.493400 5.013754 -6.634912 1.280521 -94.731408 15.424412 22.817335 14.250191 -21.962351 -2.927250 -0.024634 0.158053 25.030536 5.162268 20.276116 1.812700 -7.125000 0.000000 0.000000 -22.487000 48.825900 -2.225100 -5.095357 7.239721 1.059464 81.627686 7.081922 27.663547 -16.024304 22.138884 -4.680031 -0.163638 -2.165781 -0.243692 -23.579763 25.011034 -11.287500 7.125000 0.000000 0.000000 4.011500 -0.576000 3.980700
9.344646 18.024436 -7.079236 -6.045716 -5.544484 7.161471 9.821353 4.632603 1.025400 -16.297625 -16.822299 -38.644946 2.662036 15.263762 40.232058 -0.805660 7.266496 8.106661 1.497628 -7.717133 -21.864657 -9.506025 -6.715361 1.648254 38.740454 11.103742 -4.648764 -0.056805 -6.535188 25.753372 0.151148 -3.261282 -9.885063 -0.003273 -0.356982 0.980839 5.748916 1.792201 3.187963 1.698532 2.290593 -2.724543 0.691240 1.720434 -4.976710 -12.565449 -1.635050 -6.215549 5.034100 -1.544336 10.657974 6.397657 -1.224026 4.381564 5.010939 -6.626014 1.292436 -94.699849 15.656892 22.714461 14.211821 -21.917583 -2.917264 -0.034643 0.157115 24.946481 4.869743 20.571289 1.737459 -7.125000 0.000000 0.000000 -22.889761 49.060637 -2.409370 -5.116901 7.256846 1.068247 81.634419 7.352861 27.700613 -16.203131 22.329367 -4.766426 -0.159424 -2.175027 -0.187347 -23.886295 25.195747 -11.528660 7.125000 0.000000 0.000000 3.852976 -0.302887 3.840581
9.344666 18.017897 -6.970420 -6.050722 -5.546534 7.232770 9.785742 4.611541 1.017624 -16.026693 -17.056128 -38.565810 2.168121 14.760037 38.369820 -0.832454 7.588633 8.303363 1.664068 -8.127382 -23.101998 -9.477309 -6.736883 1.660814 38.709487 10.946553 -4.216635 -0.023479 -6.415349 25.527280 0.130252 -3.226450 -10.059537 -0.007824 -0.516456 1.419177 5.712115 1.832791 3.169498 1.675481 2.340544 -2.738816 0.622703 1.747767 -5.070099 -12.496017 -1.691318 -5.984739 5.029618 -1.642608 10.537190 6.384650 -1.261533 4.270921 5.007434 -6.616553 1.304971 -94.665533 15.889334 22.605199 14.182753 -21.884409 -2.910328 -0.043315 0.156225 24.877448 4.613118 20.839631 1.672052 -7.125000 0.000000 0.000000 -23.247923 49.275149 -2.576938 -5.139967 7.273637 1.077065 81.647553 7.623405 27.723929 -16.390054 22.528494 -4.855494 -0.155584 -2.182915 -0.156071 -24.167266 25.374914 -11.753046 7.125000 0.000000 0.000000 3.709564 -0.042851 3.714533
9.346860 18.020861 -6.858015 -5.950278 -5.618480 7.258549 9.740081 4.598523 1.009315 -15.861864 -17.311871 -38.330211 1.693011 14.196494 36.461063 -0.890825 8.023672 8.362840 1.754152 -8.331623 -23.727297 -9.432172 -6.763603 1.674783 38.516189 10.823155 -3.737147 0.016779 -6.277414 25.258609 0.084098 -3.074505 -10.231265 -0.029036 -1.007033 2.768765 5.590245 1.907800 3.172411 1.631668 2.435694 -2.738453 0.516348 1.797262 -5.113433 -12.410553 -1.737661 -5.815786 5.044699 -1.722915 10.410228 6.382275 -1.286200 4.167181 4.999939 -6.603831 1.321086 -94.615259 16.121560 22.458955 14.207535 -21.918367 -2.921052 -0.044256 0.155614 24.895389 4.564336 20.952635 1.663578 -7.125000 0.000000 0.000000 -23.347885 49.372574 -2.647807 -5.171847 7.288496 1.086086 81.697739 7.891658 27.667642 -16.623841 22.777671 -4.960030 -0.153917 -2.182934 -0.269937 -24.300257 25.521964 -11.880318 7.125000 0.000000 0.000000 3.653646 0.141473 3.669950
9.349350 18.022795 -6.744265 -5.891119 -5.709047 7.241058 9.687174 4.587877 0.999275 -15.634080 -17.584902 -38.015273 1.229994 13.613854 34.542097 -0.965156 8.497550 8.331983 1.748998 -8.312284 -23.672460 -9.391325 -6.793879 1.687325 38.368478 10.678096 -3.208552 0.055638 -6.134753 24.988908 0.041855 -2.932555 -10.385477 -0.051282 -1.445302 3.975162 5.506261 1.978494 3.211136 1.598307 2.527129 -2.727597 0.436814 1.846268 -5.123052 -12.356666 -1.777820 -5.706215 5.060025 -1.787724 10.300023 6.385418 -1.304761 4.084556 4.995188 -6.592355 1.335797 -94.616634 16.312719 22.206172 14.211626 -21.926252 -2.924042 -0.043326 0.155782 25.044551 4.540239 21.031515 1.660844 -7.125000 0.000000 0.000000 -23.408892 49.441062 -2.696449 -5.197388 7.301680 1.096274 81.699278 8.182231 27.656423 -16.871202 23.036928 -5.066432 -0.153184 -2.179260 -0.408306 -24.367234 25.609278 -11.946330 7.125000 0.000000 0.000000 3.628716 0.243739 3.651379
